PathFileType	4	(X/Y/Z)	C:/Users/beibeiliu/ov580/test_trc/User3\sequence.41_training_dense_right.trc
DataRate	CameraRate	NumFrames	NumMarkers	Units	OrigDataRate	OrigDataStartFrame	OrigNumFrames
120	120	16	19	mm	120	26	75
Frame#	Time	ThumbCMC			ThumbMCP			ThumbIP			ThumbTip			IndexMCP			IndexPIP			IndexTip			MiddleMCP			MiddlePIP			MiddleTip			RingMCP			RingPIP			RingTip			PinkyMCP			PinkyPIP			PinkyTip			BackHand1			BackHand2			BackHand3	
		X0	Y0	Z0	X1	Y1	Z1	X2	Y2	Z2	X3	Y3	Z3	X4	Y4	Z4	X5	Y5	Z5	X6	Y6	Z6	X7	Y7	Z7	X8	Y8	Z8	X9	Y9	Z9	X10	Y10	Z10	X11	Y11	Z11	X12	Y12	Z12	X13	Y13	Z13	X14	Y14	Z14	X15	Y15	Z15	X16	Y16	Z16	X17	Y17	Z17	X18	Y18	Z18	
25	0.208333	201.205	26.9962	42.8034	182.456	51.9699	24.4414	160.473	61.3764	9.44168	133.537	54.3691	2.68855	186.018	16.3714	-27.2032	178.34	33.5024	-51.0217	167.188	56.0596	-64.2013	160.555	2.83382	-31.9905	150.886	16.2886	-54.4972	138.477	49.1804	-73.3661	142.627	-0.105247	-18.7925	129.964	17.115	-41.8602	122.728	41.681	-46.7652	123.024	3.83253	1.64479	110.701	21.993	-9.80346	106.785	50.4226	-10.2982	159.893	-21.8642	30.2246	166.456	-28.9219	56.3875	194.197	-14.0045	36.5205	
26	0.216667	200.599	23.8539	44.1107	188.387	50.6023	27.0334	170.485	68.6803	9.25042	143.437	68.6553	-1.11588	188.741	17.1686	-27.094	180.923	31.8875	-50.916	175.663	57.6971	-66.1663	165.563	3.92227	-30.2918	153.311	20.9438	-57.4656	141.43	45.0627	-73.5456	147.355	0.801092	-23.2669	135.423	16.6389	-44.8105	120.63	41.5108	-53.2997	122.934	2.0307	-0.764867	114.509	19.6122	-16.387	106.678	43.3773	-19.3655	162.026	-19.6258	25.3011	164.442	-28.8164	53.9437	195.251	-15.9936	35.9519	
27	0.225	212.532	28.4836	47.9096	204.107	59.4434	32.2928	187.649	81.5256	10.6914	167.731	90.7587	1.99144	193.999	24.3973	-29.046	192.049	40.807	-50.1471	185.744	64.3376	-67.3942	172.486	12.849	-32.4006	162.275	27.8111	-57.0942	153.989	55.0068	-78.2713	152.312	4.83444	-19.3365	144.51	19.0354	-44.947	127.144	39.7047	-59.585	132.498	2.12864	-1.11426	115.861	11.9227	-16.4784	108.555	36.0856	-31.4655	167.528	-15.6899	22.3372	175.249	-26.6069	53.6304	200.532	-9.2869	31.2756	
28	0.233333	223.097	29.5006	47.1355	218.144	61.1576	32.152	207.95	82.7255	18.5461	191.655	98.5725	5.66469	211.085	29.0149	-30.0979	208.746	45.1636	-48.7405	200.701	69.5542	-66.6168	186.342	16.5796	-33.8366	180.443	32.4135	-55.4105	169.091	57.0926	-77.4536	166.338	9.22106	-24.1229	156.319	20.0964	-45.2582	144.985	39.3236	-61.1485	146.835	2.75766	-3.4402	132.505	10.7636	-22.1924	118.56	26.7171	-34.2481	182.312	-15.22	23.151	184.321	-25.9568	52.5035	214.784	-6.61223	30.8617	
29	0.241667	234.973	27.3592	50.3199	230.976	59.3479	35.5924	220.983	84.555	15.8416	200.21	92.6752	0.994689	223.755	27.6918	-30.0324	224.252	43.301	-48.4984	218.308	64.4782	-64.2028	201.122	15.5889	-35.0733	194.573	33.5585	-57.2399	188.752	61.2008	-77.4256	181.637	9.18611	-22.4721	174.005	23.9067	-47.4226	164.529	45.751	-62.8131	163.25	4.12484	-4.4022	148.418	15.0446	-25.5184	136.977	33.1491	-35.6703	194.506	-14.8748	21.7529	195.099	-26.4423	51.9397	228.653	-6.99872	36.4705	
30	0.25	246.273	24.8083	48.8123	239.523	54.6227	30.0497	224.729	72.2524	11.4899	203.715	75.9421	-1.67806	243.558	19.9446	-26.2036	238.156	35.5423	-49.5412	235.2	54.3575	-65.1499	217.654	9.40921	-33.3403	212.767	27.5492	-58.5607	204.584	54.691	-75.2172	197.372	4.68508	-25.3534	192.522	21.456	-47.6711	178.803	49.0608	-58.4188	179.185	4.20758	-8.12252	170.326	20.6494	-26.5664	162.063	42.8437	-32.2368	205.51	-19.1834	24.0339	206.78	-26.6952	51.4679	239.245	-13.0778	38.4759	
31	0.258333	254.942	20.1012	52.009	244.105	48.8397	26.3098	227.378	61.2358	6.62424	202.707	60.4825	-7.12857	254.139	9.45881	-22.3045	255.787	26.4586	-48.7102	250.299	44.7977	-66.7812	232.284	2.20302	-32.874	228.356	19.1362	-56.2409	224.792	49.2146	-76.3885	212.705	2.1059	-24.5865	204.881	20.4879	-45.1256	199.969	46.6702	-52.2274	190.507	3.89849	-7.07079	186.286	23.9419	-21.5794	184.473	50.7753	-23.3597	218.931	-22.5827	25.4898	219.805	-31.5652	56.292	247.252	-18.2243	41.1241	
32	0.266667	264.644	21.8074	57.1899	250.658	49.893	27.6585	232.225	61.2002	4.54674	206.878	54.4009	-5.57645	265.347	8.83367	-18.833	268.879	27.4871	-46.613	264.454	43.2335	-62.1572	244.208	1.57943	-26.4734	243.916	19.8573	-54.2014	234.338	44.8806	-74.2427	222.545	1.05229	-20.606	217.188	19.9165	-42.5796	206.461	49.9511	-47.9938	202.135	4.56426	-4.48605	192.602	26.6691	-17.4026	194.92	56.0717	-15.109	225.864	-25.3096	28.7698	223.304	-30.3028	56.8389	256.238	-17.8797	41.0863	
33	0.275	264.867	24.854	57.6445	254.154	53.8995	34.4147	234.404	65.1374	10.9118	208.909	58.5544	-4.86788	271.271	15.8059	-20.7178	270.485	29.6312	-42.8923	263.257	46.3624	-61.5086	244.854	4.39075	-24.7412	246.277	21.3882	-52.3463	240.953	45.539	-72.3811	224.662	3.92402	-22.4311	218.156	21.313	-42.0794	207.361	47.6819	-46.7741	203.983	7.09636	-5.79815	195.615	27.9305	-17.0827	192.073	58.1906	-14.9843	231.892	-23.7855	29.354	230.787	-27.9781	56.0806	263.59	-12.6922	46.5499	
34	0.283333	257.928	24.3429	54.5675	246.775	54.0915	31.3748	227.395	61.8581	13.5163	202.386	60.7199	-3.92324	258.763	14.6822	-20.2952	262.84	32.9899	-46.5682	256.172	47.5876	-62.1879	243.357	6.20847	-29.0166	239.024	19.9671	-52.1141	229.7	46.0565	-75.0456	220.92	1.19377	-20.601	211.918	15.8274	-41.3643	202.323	47.0368	-51.3617	197.329	3.40458	-4.987	186.696	23.5145	-17.3251	184.382	49.8079	-18.0457	224.618	-23.1481	31.1197	226.512	-28.9267	59.3433	257.386	-12.6274	42.4434	
35	0.291667	239.923	27.6037	54.2534	225.179	57.5788	28.4125	205.805	69.9535	10.1983	182.748	62.7678	-1.46912	242.646	20.7749	-26.5536	236.603	33.4101	-47.232	232.985	51.7883	-65.7156	221.739	7.8104	-33.7885	216.341	22.3322	-57.0222	204.271	43.197	-78.1058	199.828	-1.70388	-21.9159	194.112	14.8597	-47.776	177.296	38.2215	-60.2734	178.69	-1.92624	-9.27636	167.632	11.7078	-20.9829	157.639	38.6388	-25.4972	213.981	-22.7083	26.9576	213.273	-29.3837	58.1599	239.766	-11.191	39.3683	
36	0.3	213.657	32.7534	43.064	196.869	59.3571	25.9212	174.124	71.3344	1.22736	152.531	67.2492	-8.39346	210.849	22.1764	-33.0221	209.091	38.6604	-55.1141	197.216	52.6751	-72.1594	196.883	11.5051	-39.288	187.357	23.4819	-61.7007	175.912	46.7606	-86.102	175.835	-1.44257	-27.6462	165.217	11.4759	-53.8706	150.881	30.8053	-69.3792	153.098	-8.5354	-9.57331	136.824	4.81018	-31.0972	128.605	21.4261	-38.9682	190.087	-19.3714	21.2558	193.854	-26.4548	46.5233	217.624	-6.38352	35.015	
37	0.308333	187.333	35.0995	36.6174	170.816	63.3608	14.7579	146.323	72.9853	-9.85046	123.686	65.6487	-18.6781	182.463	24.3032	-41.0543	176.336	36.9808	-64.9046	169.023	56.6149	-83.7313	166.667	9.71667	-48.4267	155.615	22.0722	-72.2593	140.879	44.5151	-93.8615	148.232	-2.05005	-36.1464	136.504	11.0069	-62.5037	123.888	28.4043	-77.0128	125.838	-8.27561	-19.2992	111.499	3.39002	-39.0047	101.211	23.5763	-49.3233	164.55	-19.6379	13.7678	166.575	-26.2401	38.3698	191.594	-2.44096	20.0657	
38	0.316667	172.026	29.2485	25.7112	152.784	53.6622	1.1208	127.824	59.7391	-22.5292	105.532	53.4832	-28.5001	162.837	15.7852	-54.623	157.993	29.9939	-77.5651	145.457	47.8037	-94.0171	144.225	-0.547668	-55.523	138.077	14.3054	-80.6331	123.124	38.5211	-103.087	128.611	-6.54146	-47.1194	115.568	1.71738	-67.4273	102.438	25.5964	-81.7163	108.249	-10.1215	-25.1701	93.1951	1.48924	-41.4183	85.2794	25.1675	-49.6521	144.769	-22.979	6.36269	150.381	-28.1085	30.9502	174.014	-10.9248	11.911	
39	0.325	163.659	25.7466	15.9143	137.917	42.9518	-11.7295	113.481	44.4384	-29.7475	91.7244	39.0469	-34.6837	154.862	6.31547	-56.9823	148.879	18.9676	-83.8546	135.89	38.0726	-101.521	135.719	-8.84508	-64.401	122.676	3.34008	-89.8476	106.069	26.1687	-108.767	113.103	-15.967	-52.7257	101.813	-3.33563	-73.831	86.8231	21.9557	-83.887	98.2848	-13.7021	-32.3457	80.5917	1.94005	-46.2786	72.9556	28.1036	-48.5111	131.996	-31.4243	0.0847579	137.965	-34.3568	29.5726	165.501	-16.9923	4.82168	
40	0.333333	159.182	28.2398	8.08046	133.394	45.4028	-14.0756	108.343	47.3892	-33.724	87.2419	34.5214	-40.6263	153.843	8.79801	-63.7522	142.873	19.9501	-88.7474	127.68	39.4188	-107.443	132.606	-10.4277	-67.0026	124.146	1.77098	-91.8541	104.766	23.0271	-114.371	113.408	-16.85	-53.35	100.845	-4.69647	-78.1207	82.3043	16.1241	-87.7155	93.7739	-16.8464	-36.3519	77.5169	-0.110157	-50.0358	67.7607	23.9033	-51.3155	135.77	-28.6563	-6.38796	141.226	-33.7274	22.7932	162.246	-12.9297	1.71736	
